<?xml version="1.0" encoding="utf-8"?>
<!-- Generator: Adobe Illustrator 23.0.1, SVG Export Plug-In . SVG Version: 6.00 Build 0)  -->
<svg version="1.1" id="Layer_1" xmlns="http://www.w3.org/2000/svg" xmlns:xlink="http://www.w3.org/1999/xlink" x="0px" y="0px"
	 viewBox="0 0 382 174.3" style="enable-background:new 0 0 382 174.3;" xml:space="preserve">
<style type="text/css">
	.st0{font-family:'ETBembo-RomanLF';}
	.st1{font-size:12px;}
	.st2{fill:#FFFFFF;stroke:#000000;stroke-width:0.75;stroke-miterlimit:10;}
</style>
<text transform="matrix(1 0 0 1 33.5236 18.229)" class="st0 st1">Level 0</text>
<text transform="matrix(1 0 0 1 33.5236 52.3698)" class="st0 st1">Level 1</text>
<text transform="matrix(1 0 0 1 33.5236 95.3785)" class="st0 st1">Level 2</text>
<g>
	<rect x="82.9" y="7" class="st2" width="259" height="14.5"/>
	<line class="st2" x1="325.8" y1="7" x2="325.8" y2="21.6"/>
	<line class="st2" x1="309.6" y1="7" x2="309.6" y2="21.6"/>
	<line class="st2" x1="293.4" y1="7" x2="293.4" y2="21.6"/>
	<line class="st2" x1="277.2" y1="7" x2="277.2" y2="21.6"/>
	<line class="st2" x1="261" y1="7" x2="261" y2="21.6"/>
	<line class="st2" x1="244.9" y1="7" x2="244.9" y2="21.6"/>
	<line class="st2" x1="228.7" y1="7" x2="228.7" y2="21.6"/>
	<line class="st2" x1="212.5" y1="7" x2="212.5" y2="21.6"/>
	<line class="st2" x1="196.3" y1="7" x2="196.3" y2="21.6"/>
	<line class="st2" x1="180.1" y1="7" x2="180.1" y2="21.6"/>
	<line class="st2" x1="163.9" y1="7" x2="163.9" y2="21.6"/>
	<line class="st2" x1="147.7" y1="7" x2="147.7" y2="21.6"/>
	<line class="st2" x1="131.5" y1="7" x2="131.5" y2="21.6"/>
	<line class="st2" x1="115.3" y1="7" x2="115.3" y2="21.6"/>
	<line class="st2" x1="99.1" y1="7" x2="99.1" y2="21.6"/>
</g>
<g>
	<rect x="82.9" y="34" class="st2" width="259" height="14.5"/>
	<line class="st2" x1="309.6" y1="34" x2="309.6" y2="48.5"/>
	<line class="st2" x1="277.2" y1="34" x2="277.2" y2="48.5"/>
	<line class="st2" x1="244.9" y1="34" x2="244.9" y2="48.5"/>
	<line class="st2" x1="212.5" y1="34" x2="212.5" y2="48.5"/>
	<line class="st2" x1="180.1" y1="34" x2="180.1" y2="48.5"/>
	<line class="st2" x1="147.7" y1="34" x2="147.7" y2="48.5"/>
	<line class="st2" x1="115.3" y1="34" x2="115.3" y2="48.5"/>
</g>
<g>
	<rect x="99.1" y="50.8" class="st2" width="226.7" height="14.5"/>
	<line class="st2" x1="293.4" y1="50.8" x2="293.4" y2="65.4"/>
	<line class="st2" x1="261" y1="50.8" x2="261" y2="65.4"/>
	<line class="st2" x1="228.7" y1="50.8" x2="228.7" y2="65.4"/>
	<line class="st2" x1="196.3" y1="50.8" x2="196.3" y2="65.4"/>
	<line class="st2" x1="163.9" y1="50.8" x2="163.9" y2="65.4"/>
	<line class="st2" x1="131.5" y1="50.8" x2="131.5" y2="65.4"/>
</g>
<g>
	<rect x="82.9" y="75.2" class="st2" width="259" height="14.5"/>
	<line class="st2" x1="277.2" y1="75.2" x2="277.2" y2="89.7"/>
	<line class="st2" x1="212.5" y1="75.2" x2="212.5" y2="89.7"/>
	<line class="st2" x1="147.7" y1="75.2" x2="147.7" y2="89.7"/>
</g>
<g>
	<rect x="115.3" y="92" class="st2" width="194.3" height="14.5"/>
	<line class="st2" x1="244.9" y1="92" x2="244.9" y2="106.5"/>
	<line class="st2" x1="180.1" y1="92" x2="180.1" y2="106.5"/>
</g>
<text transform="matrix(1 0 0 1 33.5236 136.3445)" class="st0 st1">Level 3</text>
<text transform="matrix(1 0 0 1 33.5236 165.4463)" class="st0 st1">Level 4</text>
<g>
	<rect x="82.9" y="116.1" class="st2" width="259" height="14.5"/>
	<line class="st2" x1="212.5" y1="116.1" x2="212.5" y2="130.7"/>
</g>
<g>
	<rect x="147.7" y="133" class="st2" width="129.5" height="14.5"/>
</g>
<text transform="matrix(1 0 0 1 87.8291 18.229)" class="st0 st1">0</text>
<text transform="matrix(1 0 0 1 96.2048 44.7795)" class="st0 st1">0</text>
<text transform="matrix(1 0 0 1 128.5862 44.7795)" class="st0 st1">2</text>
<text transform="matrix(1 0 0 1 112.3957 62.2379)" class="st0 st1">1</text>
<text transform="matrix(1 0 0 1 144.7768 62.2379)" class="st0 st1">3</text>
<text transform="matrix(1 0 0 1 112.3956 86.1492)" class="st0 st1">0</text>
<text transform="matrix(1 0 0 1 177.1581 86.1492)" class="st0 st1">2</text>
<text transform="matrix(1 0 0 1 306.6829 86.1492)" class="st0 st1">6</text>
<text transform="matrix(1 0 0 1 144.7767 103.3576)" class="st0 st1">1</text>
<text transform="matrix(1 0 0 1 209.5392 103.3576)" class="st0 st1">3</text>
<text transform="matrix(1 0 0 1 144.7769 127.2192)" class="st0 st1">0</text>
<g>
	<rect x="82.9" y="154.3" class="st2" width="259" height="14.5"/>
</g>
<text transform="matrix(1 0 0 1 209.5391 165.4463)" class="st0 st1">0</text>
<text transform="matrix(1 0 0 1 274.3016 127.2192)" class="st0 st1">2</text>
<text transform="matrix(1 0 0 1 209.5392 144.1776)" class="st0 st1">1</text>
<text transform="matrix(1 0 0 1 104.2073 18.229)" class="st0 st1">1</text>
<text transform="matrix(1 0 0 1 120.4806 18.229)" class="st0 st1">2</text>
<text transform="matrix(1 0 0 1 136.9413 18.229)" class="st0 st1">3</text>
<text transform="matrix(1 0 0 1 328.1291 18.229)" class="st0 st1">15</text>
<text transform="matrix(1 0 0 1 319.9402 44.7794)" class="st0 st1">14</text>
</svg>
