<?xml version="1.0" encoding="utf-8"?>
<!-- Generator: Adobe Illustrator 23.0.1, SVG Export Plug-In . SVG Version: 6.00 Build 0)  -->
<svg version="1.1" id="Layer_1" xmlns="http://www.w3.org/2000/svg" xmlns:xlink="http://www.w3.org/1999/xlink" x="0px" y="0px"
	 viewBox="0 0 520 190.2" style="enable-background:new 0 0 520 190.2;" xml:space="preserve">
<style type="text/css">
	.st0{fill:#BF9C76;stroke:#FFFFFF;stroke-width:0.25;stroke-miterlimit:10;}
	.st1{fill:#E3D2BF;}
	.st2{fill:#BF9C76;}
	.st3{font-family:'ETBembo-RomanLF';}
	.st4{font-size:10.0043px;}
	.st5{font-size:9px;}
	.st6{fill:none;stroke:#000000;stroke-miterlimit:10;}
	.st7{fill:none;stroke:#000000;stroke-linecap:round;stroke-linejoin:round;}
	.st8{fill:none;stroke:#000000;stroke-linecap:round;stroke-linejoin:round;stroke-dasharray:1.9957,2.9935;}
	.st9{fill:none;stroke:#000000;stroke-linecap:round;stroke-linejoin:round;stroke-miterlimit:10;}
	.st10{fill:none;stroke:#000000;stroke-linecap:round;stroke-linejoin:round;stroke-dasharray:2.0203,3.0304;}
	.st11{fill:none;stroke:#000000;stroke-linecap:round;stroke-linejoin:round;stroke-dasharray:1.9798,2.9697;}
	.st12{fill:#FFFFFF;stroke:#000000;stroke-miterlimit:10;}
	.st13{stroke:#000000;stroke-miterlimit:10;}
	.st14{fill:none;stroke:#000000;stroke-width:0.5;stroke-miterlimit:10;}
	.st15{fill:none;stroke:#000000;stroke-width:0.5;stroke-miterlimit:10;stroke-dasharray:4.9542,1.9817;}
	.st16{fill:none;stroke:#000000;stroke-width:0.5;stroke-miterlimit:10;stroke-dasharray:4.8553,1.9421;}
	.st17{fill:none;stroke:#000000;stroke-width:0.5;stroke-miterlimit:10;stroke-dasharray:5.0173,2.0069;}
	.st18{fill:none;stroke:#000000;stroke-width:0.5;stroke-miterlimit:10;stroke-dasharray:4.8481,1.9393;}
	.st19{enable-background:new    ;}
	.st20{clip-path:url(#SVGID_2_);}
	.st21{fill:none;stroke:#000000;stroke-width:0.75;stroke-miterlimit:10;}
</style>
<rect x="426" y="46" class="st0" width="41.7" height="8.1"/>
<rect x="426" y="54.1" class="st0" width="37.5" height="8.7"/>
<rect x="426" y="62.8" class="st0" width="32.6" height="9.4"/>
<rect x="426" y="72.2" class="st0" width="28" height="10.1"/>
<rect x="426" y="82.3" class="st0" width="22.4" height="10.9"/>
<rect x="426" y="93.1" class="st0" width="16.3" height="11.9"/>
<rect x="426" y="105" class="st0" width="10.2" height="12.8"/>
<rect x="206.6" y="14.8" class="st1" width="87.1" height="152.6"/>
<polygon class="st1" points="417.9,167.4 377.4,167.4 386.1,14.8 409,14.8 "/>
<rect x="206.6" y="43.4" class="st2" width="87.1" height="76.8"/>
<polygon class="st1" points="107.9,167.4 54.6,167.4 46.7,14.8 116.9,14.8 "/>
<text transform="matrix(1 0 0 1 63.1625 180.1951)" class="st3 st4">Top view</text>
<text transform="matrix(1 0 0 1 227.6797 180.1951)" class="st3 st4">Beam view</text>
<text transform="matrix(1 0 0 1 374.9869 180.1951)" class="st3 st4">Beam depth buffer</text>
<text transform="matrix(1 0 0 1 123.7759 25.5638)" class="st3 st4">beam</text>
<text transform="matrix(1 0 0 1 123.7757 162.0272)" class="st3 st4">primary axis</text>
<text transform="matrix(1 0 0 1 129.9832 141.1025)" class="st3 st5">near</text>
<text transform="matrix(1 0 0 1 129.9832 128.7469)" class="st3 st5">far</text>
<line class="st6" x1="196.4" y1="122.5" x2="253.2" y2="148.9"/>
<g>
	<g>
		<line class="st7" x1="250.4" y1="96.7" x2="249.5" y2="97.2"/>
		<line class="st8" x1="246.8" y1="98.5" x2="198.6" y2="121.4"/>
		<line class="st7" x1="197.3" y1="122.1" x2="196.4" y2="122.5"/>
	</g>
</g>
<path class="st9" d="M196.4,45.7c18-4.4,36-8.9,53.7-13.3"/>
<path class="st9" d="M250.1,32.4c18,3,35.8,6,53.2,8.9"/>
<g>
	<g>
		<line class="st7" x1="303.3" y1="113.8" x2="302.4" y2="113.4"/>
		<line class="st10" x1="299.5" y1="112.5" x2="252.8" y2="97.5"/>
		<polyline class="st7" points="251.4,97 250.4,96.7 250.4,95.7 		"/>
		<line class="st11" x1="250.4" y1="92.8" x2="250.1" y2="34.9"/>
		<line class="st7" x1="250.1" y1="33.4" x2="250.1" y2="32.4"/>
	</g>
</g>
<polygon class="st9" points="253.2,148.9 253.2,59.3 303.3,41.3 303.3,113.8 "/>
<polyline class="st9" points="253.2,59.3 196.4,45.7 196.4,122.5 "/>
<circle class="st12" cx="206.6" cy="127.2" r="2.3"/>
<circle cx="206.6" cy="43.4" r="2.3"/>
<circle class="st12" cx="293.7" cy="39.8" r="2.3"/>
<circle class="st13" cx="293.7" cy="120.2" r="2.3"/>
<rect x="50.9" y="81.8" class="st2" width="61" height="11.9"/>
<rect x="53.9" y="60.1" transform="matrix(0.7779 0.6284 -0.6284 0.7779 73.1806 -31.7389)" class="st6" width="55.2" height="55.2"/>
<circle class="st12" cx="51.2" cy="98.3" r="2.3"/>
<circle class="st12" cx="113.2" cy="78" r="2.3"/>
<circle cx="50.5" cy="81.8" r="2.3"/>
<circle cx="111.9" cy="93.7" r="2.3"/>
<g>
	<g>
		<line class="st14" x1="81.5" y1="14.8" x2="81.5" y2="17.3"/>
		<line class="st15" x1="81.5" y1="19.3" x2="81.5" y2="163.9"/>
		<line class="st14" x1="81.5" y1="164.9" x2="81.5" y2="167.4"/>
	</g>
</g>
<g>
	<g>
		<path class="st14" d="M109.2,92.9c-19.8-3.9-36.3-4-54.8-0.3"/>
		<g>
			<path d="M51.4,93.2c1.3-0.8,2.9-2,3.7-3.1l-0.4,2.5l1.3,2.2C54.8,94,52.9,93.4,51.4,93.2z"/>
		</g>
	</g>
</g>
<g>
	<g>
		<path class="st14" d="M290.2,118.4c-28.7-6.6-52.3-6.7-79.1-0.2"/>
		<g>
			<path d="M208.1,118.9c1.3-0.8,2.8-2.1,3.6-3.3l-0.3,2.5l1.4,2.1C211.6,119.6,209.6,119.1,208.1,118.9z"/>
		</g>
	</g>
</g>
<g>
	<g>
		<path class="st14" d="M53.2,81.1c19.8-3.9,36.3-4,54.8-0.3"/>
		<g>
			<path d="M111,81.4c-1.5,0.2-3.4,0.8-4.6,1.5l1.3-2.2l-0.4-2.5C108.1,79.4,109.7,80.6,111,81.4z"/>
		</g>
	</g>
</g>
<g>
	<g>
		<path class="st14" d="M209.6,44.8c27.3,8.2,49.8,8.3,75.3,0.3"/>
		<g>
			<path d="M287.7,44.2c-1.2,0.9-2.6,2.3-3.4,3.5l0.1-2.5l-1.5-2C284.3,43.7,286.2,44.1,287.7,44.2z"/>
		</g>
	</g>
</g>
<g>
	<g>
		<line class="st14" x1="306.9" y1="43.4" x2="309.4" y2="43.4"/>
		<line class="st16" x1="311.3" y1="43.4" x2="378.3" y2="43.4"/>
		<line class="st14" x1="379.3" y1="43.4" x2="381.8" y2="43.4"/>
	</g>
</g>
<g>
	<g>
		<line class="st14" x1="412.5" y1="43.4" x2="415" y2="43.4"/>
		<line class="st16" x1="417" y1="43.4" x2="484" y2="43.4"/>
		<line class="st14" x1="484.9" y1="43.4" x2="487.4" y2="43.4"/>
	</g>
</g>
<g>
	<g>
		<line class="st14" x1="306.9" y1="120.2" x2="309.4" y2="120.2"/>
		<line class="st17" x1="311.4" y1="120.2" x2="373.6" y2="120.2"/>
		<line class="st14" x1="374.6" y1="120.2" x2="377.1" y2="120.2"/>
	</g>
</g>
<g>
	<g>
		<line class="st14" x1="417.1" y1="120.2" x2="419.6" y2="120.2"/>
		<line class="st18" x1="421.5" y1="120.2" x2="481.6" y2="120.2"/>
		<line class="st14" x1="482.6" y1="120.2" x2="485.1" y2="120.2"/>
	</g>
</g>
<polygon class="st2" points="384.4,46 410.8,46 414.9,117.8 380.3,117.8 "/>
<g>
	<g>
		<g class="st19">
			<defs>
				<polygon id="SVGID_1_" class="st19" points="378.2,147.6 384.8,31 410.3,31 417,147.6 				"/>
			</defs>
			<clipPath id="SVGID_2_">
				<use xlink:href="#SVGID_1_"  style="overflow:visible;"/>
			</clipPath>
			<g class="st20">
				<g>
					<g>
						<g>
							<path d="M385.1,38.1l0.4-6.7h24.3l0.4,6.7h0.3l0,0.5h-0.3l0.4,7.1h0.3l0,0.5h-0.3l0.4,7.6h0.3l0,0.6H411l0.4,8.1h0.4l0,0.6
								h-0.4l0.5,8.7h0.4l0,0.7H412l0.5,9.4h0.4l0,0.7h-0.4l0.6,10.1h0.4l0,0.8h-0.4l0.6,11h0.4l0,0.8h-0.4l0.7,11.9h0.4l0.1,0.9
								h-0.4l0.7,13h0.5l0.1,1h-0.5l0.8,14.2h-36.8l0.8-14.2h-0.4l0.1-1h0.4l0.7-13h-0.4l0.1-0.9h0.4l0.7-11.9H381l0-0.8h0.4l0.6-11
								h-0.4l0-0.8h0.4l0.6-10.1h-0.4l0-0.7h0.4l0.5-9.4h-0.4l0-0.7h0.4l0.5-8.7h-0.3l0-0.6h0.3l0.4-8.1h-0.3l0-0.6h0.3l0.4-7.6
								h-0.3l0-0.5h0.3l0.4-7.1h-0.3l0-0.5H385.1 M410.3,31h-25.5l-6.7,116.6H417L410.3,31"/>
							<polyline points="415.6,131.3 415.2,131.3 380,131.3 379.5,131.3 379.5,132.3 379.9,132.3 415.2,132.3 415.7,132.3 
								415.6,131.3 							"/>
							<polyline points="414.8,117.3 414.4,117.3 380.7,117.3 380.3,117.3 380.3,118.3 380.7,118.3 414.5,118.3 414.9,118.3 
								414.8,117.3 							"/>
							<polyline points="414.1,104.6 413.7,104.6 381.4,104.6 381,104.6 381,105.4 381.4,105.4 413.8,105.4 414.2,105.4 
								414.1,104.6 							"/>
							<polyline points="413.5,92.8 413.1,92.8 382.1,92.8 381.7,92.8 381.6,93.6 382,93.6 413.1,93.6 413.5,93.6 413.5,92.8 
															"/>
							<polyline points="412.9,82 412.5,82 382.7,82 382.3,82 382.3,82.7 382.6,82.7 412.5,82.7 412.9,82.7 412.9,82 							"/>
							<polyline points="412.3,71.9 411.9,71.9 383.2,71.9 382.9,71.9 382.8,72.6 383.2,72.6 412,72.6 412.3,72.6 412.3,71.9 
															"/>
							<polyline points="411.8,62.6 411.4,62.6 383.7,62.6 383.4,62.6 383.3,63.2 383.7,63.2 411.4,63.2 411.8,63.2 411.8,62.6 
															"/>
							<polyline points="411.3,53.9 410.9,53.9 384.2,53.9 383.9,53.9 383.8,54.4 384.2,54.4 411,54.4 411.3,54.4 411.3,53.9 
															"/>
							<polyline points="410.8,45.8 410.5,45.8 384.7,45.8 384.3,45.8 384.3,46.3 384.6,46.3 410.5,46.3 410.9,46.3 410.8,45.8 
															"/>
							<polyline points="410.4,38.1 410.1,38.1 385.1,38.1 384.7,38.1 384.7,38.6 385,38.6 410.1,38.6 410.4,38.6 410.4,38.1 
															"/>
						</g>
					</g>
				</g>
			</g>
		</g>
	</g>
</g>
<line class="st6" x1="426" y1="17" x2="426" y2="165.9"/>
<line class="st6" x1="473.1" y1="43.4" x2="435" y2="120.2"/>
<line class="st21" x1="116.4" y1="22.1" x2="121.3" y2="22.1"/>
<line class="st21" x1="122.5" y1="160.3" x2="81.5" y2="160.3"/>
<g>
	<g>
		<line class="st14" x1="123.8" y1="125.5" x2="123.8" y2="138"/>
		<g>
			<path d="M123.8,122.5c-0.5,1.4-1.4,3.2-2.4,4.3l2.4-0.9l2.4,0.9C125.2,125.7,124.3,123.9,123.8,122.5z"/>
		</g>
		<g>
			<path d="M123.8,141c-0.5-1.4-1.4-3.2-2.4-4.3l2.4,0.9l2.4-0.9C125.2,137.8,124.3,139.6,123.8,141z"/>
		</g>
	</g>
</g>
</svg>
